<svg width="1920" height="1920" viewBox="0 0 1920 1920" fill="none" xmlns="http://www.w3.org/2000/svg">
<g clip-path="url(#clip0_1_86)">
<g filter="url(#filter0_d_1_86)">
<ellipse cx="959.5" cy="960" rx="822.5" ry="819" fill="url(#paint0_linear_1_86)"/>
</g>
<g filter="url(#filter1_i_1_86)">
<path d="M1015.16 682.656L1167.51 612.344C1164.9 609.74 1162.3 607.786 1159.7 606.484L1153.84 600.625L1149.93 598.672L1144.07 592.812C1142.77 592.812 1142.12 591.51 1142.12 588.906V581.094C1143.42 581.094 1145.37 579.141 1147.98 575.234C1153.18 570.026 1161.65 567.422 1173.37 567.422H1233.91C1235.22 568.724 1237.17 569.375 1239.77 569.375H1245.63C1248.24 569.375 1250.19 568.724 1251.49 567.422H1274.93C1276.23 567.422 1277.53 568.073 1278.84 569.375C1282.74 573.281 1284.7 577.188 1284.7 581.094H1364.77H1370.63C1373.24 581.094 1375.19 581.745 1376.49 583.047H1380.4H1472.2L1478.05 577.188C1485.87 574.583 1491.73 574.583 1495.63 577.188L1503.45 569.375C1506.05 566.771 1509.96 565.469 1515.16 565.469C1516.47 566.771 1519.07 567.422 1522.98 567.422C1521.67 567.422 1521.02 568.724 1521.02 571.328C1521.02 572.63 1520.37 573.281 1519.07 573.281L1511.26 577.188C1504.75 579.792 1502.79 584.349 1505.4 590.859H1563.99H1569.85C1572.46 590.859 1573.76 592.812 1573.76 596.719C1573.76 598.021 1573.11 598.672 1571.8 598.672H1558.13H1507.35C1507.35 602.578 1508.65 605.833 1511.26 608.438C1516.47 613.646 1521.67 616.25 1526.88 616.25C1525.58 616.25 1524.93 616.901 1524.93 618.203L1521.02 622.109C1519.72 623.411 1518.42 624.062 1517.12 624.062C1514.51 626.667 1511.26 626.667 1507.35 624.062L1503.45 620.156L1501.49 618.203C1500.19 616.901 1498.89 616.25 1497.59 616.25C1496.28 614.948 1494.98 614.297 1493.68 614.297V618.203C1485.87 618.203 1481.31 617.552 1480.01 616.25C1473.5 613.646 1470.24 609.089 1470.24 602.578C1468.94 601.276 1439.64 600.625 1382.35 600.625C1381.05 601.927 1379.75 602.578 1378.45 602.578C1377.14 603.88 1373.24 604.531 1366.73 604.531H1323.76C1299.02 604.531 1286 603.88 1284.7 602.578C1284.7 606.484 1284.04 609.089 1282.74 610.391C1278.84 616.901 1273.63 620.156 1267.12 620.156H1257.35C1254.75 622.76 1251.49 624.714 1247.59 626.016C1243.68 627.318 1240.42 629.271 1237.82 631.875C1233.91 635.781 1230.66 638.385 1228.05 639.688L1222.2 641.641L1214.38 645.547C1207.87 646.849 1181.18 661.823 1134.3 690.469C1131.7 693.073 1128.45 695.026 1124.54 696.328C1121.93 697.63 1118.68 699.583 1114.77 702.188C1110.87 704.792 1107.61 706.745 1105.01 708.047C1102.4 709.349 1099.15 711.302 1095.24 713.906C1091.34 716.51 1088.08 718.464 1085.48 719.766C1059.43 734.089 1045.11 742.552 1042.51 745.156C1039.9 754.271 1037.95 759.479 1036.65 760.781C1031.44 769.896 1023.63 774.453 1013.21 774.453L1017.12 778.359C1018.42 779.661 1019.72 780.312 1021.02 780.312L1024.93 784.219C1032.74 789.427 1039.25 793.984 1044.46 797.891L1052.27 805.703L1058.13 811.562L1062.04 813.516H1095.24C1096.54 814.818 1115.42 815.469 1151.88 815.469C1154.49 816.771 1175.97 817.422 1216.34 817.422C1222.85 817.422 1226.75 818.073 1228.05 819.375C1237.17 824.583 1245.63 827.188 1253.45 827.188C1269.07 832.396 1280.79 835.651 1288.6 836.953V842.812C1283.39 842.812 1280.14 843.464 1278.84 844.766C1280.14 844.766 1281.44 846.719 1282.74 850.625C1286.65 849.323 1291.21 849.323 1296.41 850.625C1305.53 853.229 1310.74 857.786 1312.04 864.297V870.156L1397.98 891.641C1399.28 892.943 1401.23 893.594 1403.84 893.594C1405.14 893.594 1405.79 894.245 1405.79 895.547H1409.7L1421.41 899.453H1427.27C1428.58 900.755 1430.53 901.406 1433.13 901.406C1434.43 902.708 1436.39 903.359 1438.99 903.359C1440.29 904.661 1443.55 905.312 1448.76 905.312L1452.66 907.266L1456.57 909.219H1462.43C1463.73 910.521 1466.34 911.172 1470.24 911.172C1483.26 913.776 1492.38 915.729 1497.59 917.031C1497.59 915.729 1498.24 914.427 1499.54 913.125C1500.84 911.823 1504.1 911.172 1509.3 911.172C1510.61 912.474 1512.56 913.125 1515.16 913.125L1522.98 909.219C1533.39 906.615 1541.21 906.615 1546.41 909.219C1545.11 909.219 1544.46 909.87 1544.46 911.172V913.125H1534.7C1526.88 913.125 1522.98 917.031 1522.98 924.844C1524.28 926.146 1525.58 926.797 1526.88 926.797H1530.79C1530.79 928.099 1531.44 928.75 1532.74 928.75C1534.04 930.052 1537.95 930.703 1544.46 930.703C1545.76 932.005 1547.72 932.656 1550.32 932.656C1552.92 932.656 1554.88 933.307 1556.18 934.609C1563.99 934.609 1568.55 935.26 1569.85 936.562C1575.06 937.865 1581.57 939.818 1589.38 942.422C1590.68 943.724 1591.34 945.026 1591.34 946.328C1591.34 950.234 1589.38 951.536 1585.48 950.234C1576.36 950.234 1571.15 949.583 1569.85 948.281H1565.95L1563.99 946.328C1562.69 945.026 1561.39 944.375 1560.09 944.375H1548.37L1536.65 940.469C1534.04 940.469 1532.09 939.818 1530.79 938.516C1526.88 938.516 1524.28 937.865 1522.98 936.562C1520.37 939.167 1520.37 941.771 1522.98 944.375C1525.58 950.885 1530.79 954.792 1538.6 956.094C1538.6 958.698 1535.35 960 1528.84 960C1524.93 960 1522.33 959.349 1521.02 958.047C1519.72 958.047 1517.77 956.745 1515.16 954.141C1513.86 952.839 1513.21 950.885 1513.21 948.281C1513.21 946.979 1512.56 945.677 1511.26 944.375H1503.45C1499.54 944.375 1496.28 941.12 1493.68 934.609C1492.38 935.911 1486.52 935.26 1476.1 932.656L1460.48 928.75C1455.27 928.75 1452.01 928.099 1450.71 926.797C1449.41 925.495 1448.11 924.844 1446.8 924.844L1427.27 917.031C1418.16 914.427 1410.35 912.474 1403.84 911.172C1402.53 912.474 1399.28 913.125 1394.07 913.125H1392.12C1390.82 913.125 1389.51 912.474 1388.21 911.172C1384.3 911.172 1381.7 910.521 1380.4 909.219H1370.63C1365.42 909.219 1362.17 908.568 1360.87 907.266C1359.57 907.266 1358.26 906.615 1356.96 905.312C1354.36 905.312 1352.4 904.661 1351.1 903.359L1343.29 899.453C1341.99 898.151 1338.08 897.5 1331.57 897.5L1308.13 889.688L1306.18 891.641C1304.88 892.943 1303.58 893.594 1302.27 893.594C1293.16 896.198 1287.95 896.849 1286.65 895.547C1281.44 895.547 1278.18 894.896 1276.88 893.594H1278.84C1277.53 893.594 1275.58 892.292 1272.98 889.688L1269.07 893.594C1265.16 893.594 1262.56 892.943 1261.26 891.641C1256.05 889.036 1252.79 887.083 1251.49 885.781C1250.19 885.781 1249.54 885.13 1249.54 883.828C1248.24 882.526 1246.28 881.875 1243.68 881.875C1235.87 881.875 1231.31 881.224 1230.01 879.922C1222.2 879.922 1213.73 877.318 1204.62 872.109L1196.8 868.203C1195.5 868.203 1194.2 867.552 1192.9 866.25C1190.29 866.25 1188.34 865.599 1187.04 864.297C1184.43 864.297 1182.48 863.646 1181.18 862.344C1178.58 859.74 1177.27 857.135 1177.27 854.531V848.672C1175.97 847.37 1154.49 846.719 1112.82 846.719C1120.63 850.625 1153.18 866.25 1210.48 893.594C1211.78 894.896 1216.99 897.5 1226.1 901.406C1230.01 904.01 1237.17 907.917 1247.59 913.125C1250.19 915.729 1257.35 919.635 1269.07 924.844L1272.98 926.797C1274.28 928.099 1275.58 928.75 1276.88 928.75L1280.79 930.703L1284.7 932.656C1286 933.958 1287.3 934.609 1288.6 934.609L1296.41 938.516C1297.72 938.516 1299.02 939.167 1300.32 940.469L1308.13 944.375L1312.04 946.328L1315.95 950.234L1317.9 952.188C1319.2 953.49 1321.15 954.141 1323.76 954.141L1331.57 958.047C1332.87 959.349 1334.83 961.302 1337.43 963.906L1341.34 965.859C1341.34 964.557 1343.94 963.255 1349.15 961.953C1355.66 959.349 1359.57 958.698 1360.87 960L1366.73 963.906C1368.03 965.208 1372.59 967.161 1380.4 969.766C1381.7 971.068 1384.96 973.021 1390.16 975.625C1394.07 976.927 1397.33 978.88 1399.93 981.484C1424.67 995.807 1444.2 1009.48 1458.52 1022.5L1499.54 1057.66C1512.56 1069.38 1518.42 1075.89 1517.12 1077.19C1515.82 1079.79 1511.91 1081.74 1505.4 1083.05L1487.82 1094.77C1486.52 1096.07 1485.22 1096.72 1483.91 1096.72C1481.31 1096.72 1480.01 1097.37 1480.01 1098.67C1480.01 1099.97 1479.36 1100.62 1478.05 1100.62C1476.75 1100.62 1475.45 1101.28 1474.15 1102.58C1472.85 1103.88 1471.54 1104.53 1470.24 1104.53C1468.94 1104.53 1467.64 1105.18 1466.34 1106.48H1462.43L1460.48 1108.44C1457.87 1108.44 1456.57 1109.09 1456.57 1110.39C1455.27 1111.69 1441.6 1112.34 1415.55 1112.34H1378.45H1374.54L1362.82 1108.44H1347.2C1335.48 1107.14 1325.06 1105.18 1315.95 1102.58C1314.64 1101.28 1310.09 1099.32 1302.27 1096.72C1300.97 1095.42 1295.11 1094.77 1284.7 1094.77C1274.28 1090.86 1263.21 1086.95 1251.49 1083.05C1250.19 1083.05 1249.54 1082.4 1249.54 1081.09L1245.63 1069.38C1030.79 987.344 918.159 944.375 907.742 940.469C897.326 940.469 891.466 941.12 890.164 942.422C888.862 943.724 884.305 944.375 876.492 944.375C871.284 945.677 866.727 945.677 862.82 944.375L851.102 940.469H845.242H841.336C838.732 940.469 836.779 941.12 835.477 942.422V956.094V969.766C835.477 973.672 834.174 976.927 831.57 979.531C826.362 987.344 819.852 995.156 812.039 1002.97C804.227 1010.78 791.206 1014.04 772.977 1012.73C754.747 1008.83 740.424 999.714 730.008 985.391H718.289C716.987 984.089 709.174 983.438 694.852 983.438H661.648C660.346 983.438 659.044 984.089 657.742 985.391C656.44 986.693 655.138 987.344 653.836 987.344C652.534 987.344 651.232 987.995 649.93 989.297C648.628 990.599 647.326 991.25 646.023 991.25C643.419 991.25 642.117 991.901 642.117 993.203C629.096 999.714 621.935 1003.62 620.633 1004.92C618.029 1004.92 616.076 1005.57 614.773 1006.88C613.471 1008.18 611.518 1009.48 608.914 1010.78L605.008 1014.69C602.404 1014.69 599.799 1015.99 597.195 1018.59C594.591 1021.2 591.987 1022.5 589.383 1022.5C564.643 1039.43 550.971 1047.89 548.367 1047.89C541.857 1051.8 534.695 1055.7 526.883 1059.61L524.93 1061.56C523.628 1061.56 521.674 1062.86 519.07 1065.47C516.466 1066.77 513.862 1068.07 511.258 1069.38L503.445 1073.28C483.914 1085 470.242 1092.81 462.43 1096.72C463.732 1096.72 464.383 1097.37 464.383 1098.67C464.383 1099.97 465.034 1101.28 466.336 1102.58C467.638 1103.88 469.591 1107.79 472.195 1114.3C472.195 1115.6 472.846 1116.9 474.148 1118.2C475.451 1119.51 476.102 1120.81 476.102 1122.11C476.102 1123.41 476.753 1124.71 478.055 1126.02L480.008 1129.92C480.008 1131.22 480.659 1132.53 481.961 1133.83C481.961 1136.43 482.612 1138.39 483.914 1139.69C486.518 1142.29 487.82 1145.55 487.82 1149.45C487.82 1159.87 485.216 1165.73 480.008 1167.03C480.008 1172.24 480.659 1175.49 481.961 1176.8C483.263 1178.1 485.867 1183.96 489.773 1194.38C489.773 1196.98 490.424 1198.93 491.727 1200.23C491.727 1201.54 492.378 1202.84 493.68 1204.14C494.982 1205.44 495.633 1206.74 495.633 1208.05C495.633 1213.26 496.284 1216.51 497.586 1217.81V1221.72C500.19 1232.14 507.352 1249.71 519.07 1274.45C522.977 1274.45 525.581 1275.1 526.883 1276.41C530.789 1279.01 534.044 1283.57 536.648 1290.08C536.648 1292.68 537.299 1294.64 538.602 1295.94V1299.84V1303.75C538.602 1306.35 537.951 1308.31 536.648 1309.61L538.602 1313.52C541.206 1316.12 543.159 1319.38 544.461 1323.28C545.763 1323.28 546.414 1324.58 546.414 1327.19C546.414 1329.79 547.065 1331.09 548.367 1331.09C549.669 1331.09 550.32 1332.4 550.32 1335C550.32 1337.6 550.971 1338.91 552.273 1338.91L544.461 1346.72V1350.62V1356.48C544.461 1359.09 543.81 1360.39 542.508 1360.39C541.206 1360.39 539.904 1359.74 538.602 1358.44C537.299 1357.14 536.648 1355.83 536.648 1354.53L534.695 1352.58C534.695 1351.28 534.044 1350.62 532.742 1350.62H530.789C530.789 1348.02 530.138 1346.07 528.836 1344.77C527.534 1343.46 526.883 1341.51 526.883 1338.91C525.581 1337.6 523.628 1334.35 521.023 1329.14C518.419 1326.54 517.117 1324.58 517.117 1323.28L509.305 1319.38C504.096 1318.07 501.492 1314.17 501.492 1307.66C497.586 1295.94 497.586 1288.12 501.492 1284.22C501.492 1280.31 500.841 1277.71 499.539 1276.41C498.237 1275.1 497.586 1273.8 497.586 1272.5V1268.59C496.284 1268.59 495.633 1267.94 495.633 1266.64C494.331 1265.34 493.68 1264.04 493.68 1262.73V1258.83C492.378 1258.83 491.727 1258.18 491.727 1256.88C486.518 1246.46 482.612 1236.69 480.008 1227.58L478.055 1225.62C475.451 1223.02 474.148 1220.42 474.148 1217.81C472.846 1216.51 472.195 1215.21 472.195 1213.91V1210C470.893 1210 470.242 1209.35 470.242 1208.05C468.94 1206.74 466.987 1202.84 464.383 1196.33L458.523 1178.75C454.617 1178.75 452.013 1178.1 450.711 1176.8C448.107 1174.19 445.503 1172.24 442.898 1170.94C440.294 1168.33 438.341 1165.73 437.039 1163.12C434.435 1160.52 432.482 1157.27 431.18 1153.36C429.878 1149.45 427.924 1146.2 425.32 1143.59C424.018 1139.69 422.065 1136.43 419.461 1133.83V1129.92L417.508 1127.97C417.508 1125.36 416.857 1124.06 415.555 1124.06H413.602H409.695C409.695 1121.46 409.044 1119.51 407.742 1118.2L405.789 1116.25C405.789 1113.65 405.138 1112.34 403.836 1112.34C402.534 1112.34 401.883 1111.04 401.883 1108.44C401.883 1107.14 401.232 1105.83 399.93 1104.53C397.326 1094.11 395.372 1086.95 394.07 1083.05L397.977 1079.14V1075.23C395.372 1073.93 397.326 1071.98 403.836 1069.38L409.695 1065.47L425.32 1053.75C438.341 1045.94 445.503 1041.38 446.805 1040.08C454.617 1033.57 468.289 1023.8 487.82 1010.78C495.633 1005.57 509.956 995.156 530.789 979.531C537.299 976.927 546.414 971.068 558.133 961.953C576.362 950.234 587.43 942.422 591.336 938.516C593.94 935.911 596.544 933.958 599.148 932.656C601.753 930.052 603.706 928.099 605.008 926.797L608.914 924.844C611.518 922.24 617.378 918.984 626.492 915.078L630.398 913.125L636.258 907.266C636.258 905.964 637.56 904.661 640.164 903.359L644.07 901.406L646.023 899.453C647.326 898.151 648.628 897.5 649.93 897.5L655.789 893.594C657.091 894.896 659.044 895.547 661.648 895.547C661.648 892.943 662.299 890.99 663.602 889.688C666.206 884.479 670.763 881.224 677.273 879.922C682.482 879.922 685.737 880.573 687.039 881.875C688.341 883.177 689.643 883.828 690.945 883.828L698.758 876.016L704.617 872.109L722.195 854.531C719.591 854.531 717.638 853.88 716.336 852.578L712.43 850.625L706.57 844.766C526.883 844.766 431.18 845.417 419.461 846.719C416.857 846.719 414.904 847.37 413.602 848.672C416.206 848.672 418.159 849.323 419.461 850.625C418.159 850.625 417.508 852.578 417.508 856.484C416.206 856.484 415.555 857.135 415.555 858.438C416.857 858.438 418.159 859.089 419.461 860.391C420.763 861.693 421.414 862.995 421.414 864.297L425.32 868.203V877.969C426.622 879.271 424.018 885.13 417.508 895.547L415.555 897.5C416.857 898.802 417.508 900.104 417.508 901.406C417.508 905.312 416.857 907.266 415.555 907.266V909.219V913.125C416.857 913.125 417.508 913.776 417.508 915.078C417.508 920.286 418.159 923.542 419.461 924.844C402.534 924.844 393.419 925.495 392.117 926.797C392.117 908.568 391.466 898.802 390.164 897.5L382.352 893.594C377.143 892.292 374.539 888.385 374.539 881.875C374.539 870.156 377.143 863.646 382.352 862.344C381.049 862.344 380.398 861.693 380.398 860.391V856.484C379.096 855.182 378.445 853.88 378.445 852.578C377.143 851.276 373.888 849.323 368.68 846.719H325.711C324.409 845.417 323.758 844.115 323.758 842.812C322.456 841.51 321.805 835 321.805 823.281L329.617 819.375C330.919 819.375 331.57 818.724 331.57 817.422C331.57 816.12 332.221 814.818 333.523 813.516L325.711 797.891V786.172C325.711 779.661 329.617 773.151 337.43 766.641L353.055 762.734C359.565 764.036 363.471 765.99 364.773 768.594C366.076 768.594 366.727 769.245 366.727 770.547L370.633 772.5L374.539 776.406L376.492 778.359C377.794 779.661 378.445 780.964 378.445 782.266L386.258 790.078C390.164 793.984 391.466 799.844 390.164 807.656L437.039 803.75H487.82C507.352 801.146 539.253 799.193 583.523 797.891V795.938C582.221 795.938 581.57 795.286 581.57 793.984C581.57 792.682 582.221 791.38 583.523 790.078C584.826 788.776 586.128 788.125 587.43 788.125L589.383 790.078C591.987 788.776 595.893 786.823 601.102 784.219V782.266C601.102 780.964 602.404 780.312 605.008 780.312H610.867C612.169 780.312 613.471 779.661 614.773 778.359V776.406C614.773 775.104 615.424 774.453 616.727 774.453H618.68C618.68 775.755 619.331 776.406 620.633 776.406H622.586L630.398 772.5C631.701 771.198 637.56 770.547 647.977 770.547C649.279 769.245 649.93 765.99 649.93 760.781L638.211 756.875C636.909 756.875 635.607 757.526 634.305 758.828C633.003 757.526 629.747 756.224 624.539 754.922V747.109C624.539 745.807 623.888 745.156 622.586 745.156L620.633 741.25V737.344C620.633 736.042 621.284 734.74 622.586 733.438C623.888 732.135 624.539 728.88 624.539 723.672C624.539 722.37 629.096 717.161 638.211 708.047C646.023 705.443 653.185 705.443 659.695 708.047L661.648 710L677.273 713.906C683.784 713.906 687.69 713.255 688.992 711.953L696.805 719.766H704.617C704.617 721.068 705.268 722.37 706.57 723.672L710.477 727.578C716.987 727.578 720.893 728.229 722.195 729.531C727.404 729.531 730.659 730.182 731.961 731.484L741.727 733.438L757.352 737.344C758.654 738.646 761.909 739.297 767.117 739.297C777.534 739.297 783.393 738.646 784.695 737.344C785.997 736.042 789.904 735.391 796.414 735.391L804.227 731.484C805.529 730.182 806.831 729.531 808.133 729.531C809.435 728.229 811.388 727.578 813.992 727.578C815.294 726.276 818.549 725.625 823.758 725.625C825.06 725.625 825.711 726.276 825.711 727.578H829.617H833.523C834.826 728.88 836.128 729.531 837.43 729.531C838.732 729.531 839.383 730.182 839.383 731.484H843.289C845.893 731.484 847.846 732.135 849.148 733.438H855.008L858.914 731.484H862.82C862.82 728.88 863.471 726.927 864.773 725.625C867.378 723.021 872.586 720.417 880.398 717.812C879.096 717.812 878.445 717.161 878.445 715.859V713.906H866.727L864.773 715.859C863.471 715.859 862.169 715.208 860.867 713.906C855.659 713.906 852.404 713.255 851.102 711.953H841.336C840.034 711.953 838.732 711.302 837.43 710C833.523 710 830.919 709.349 829.617 708.047L827.664 706.094C827.664 703.49 827.013 702.188 825.711 702.188C824.409 698.281 824.409 691.771 825.711 682.656C829.617 665.729 836.128 657.266 845.242 657.266C846.544 658.568 850.451 659.219 856.961 659.219H858.914H862.82C864.122 660.521 868.029 661.172 874.539 661.172H886.258L905.789 665.078H913.602C914.904 666.38 918.159 667.031 923.367 667.031V672.891C959.826 672.891 979.357 673.542 981.961 674.844C983.263 674.844 983.914 675.495 983.914 676.797H995.633C1003.45 676.797 1009.96 678.75 1015.16 682.656Z" fill="url(#paint1_linear_1_86)"/>
</g>
</g>
<defs>
<filter id="filter0_d_1_86" x="-41.6" y="-33.6" width="2002.2" height="1995.2" filterUnits="userSpaceOnUse" color-interpolation-filters="sRGB">
<feFlood flood-opacity="0" result="BackgroundImageFix"/>
<feColorMatrix in="SourceAlpha" type="matrix" values="0 0 0 0 0 0 0 0 0 0 0 0 0 0 0 0 0 0 127 0" result="hardAlpha"/>
<feMorphology radius="52" operator="dilate" in="SourceAlpha" result="effect1_dropShadow_1_86"/>
<feOffset dy="4"/>
<feGaussianBlur stdDeviation="63.3"/>
<feComposite in2="hardAlpha" operator="out"/>
<feColorMatrix type="matrix" values="0 0 0 0 0 0 0 0 0 0 0 0 0 0 0 0 0 0 0.25 0"/>
<feBlend mode="normal" in2="BackgroundImageFix" result="effect1_dropShadow_1_86"/>
<feBlend mode="normal" in="SourceGraphic" in2="effect1_dropShadow_1_86" result="shape"/>
</filter>
<filter id="filter1_i_1_86" x="321.805" y="565.469" width="1269.53" height="798.922" filterUnits="userSpaceOnUse" color-interpolation-filters="sRGB">
<feFlood flood-opacity="0" result="BackgroundImageFix"/>
<feBlend mode="normal" in="SourceGraphic" in2="BackgroundImageFix" result="shape"/>
<feColorMatrix in="SourceAlpha" type="matrix" values="0 0 0 0 0 0 0 0 0 0 0 0 0 0 0 0 0 0 127 0" result="hardAlpha"/>
<feOffset dy="4"/>
<feGaussianBlur stdDeviation="17.5"/>
<feComposite in2="hardAlpha" operator="arithmetic" k2="-1" k3="1"/>
<feColorMatrix type="matrix" values="0 0 0 0 0 0 0 0 0 0 0 0 0 0 0 0 0 0 0.68 0"/>
<feBlend mode="normal" in2="shape" result="effect1_innerShadow_1_86"/>
</filter>
<linearGradient id="paint0_linear_1_86" x1="1232.48" y1="1100.73" x2="490.817" y2="193.277" gradientUnits="userSpaceOnUse">
<stop/>
<stop offset="1" stop-color="#666666"/>
</linearGradient>
<linearGradient id="paint1_linear_1_86" x1="959.5" y1="-56" x2="959.5" y2="1976" gradientUnits="userSpaceOnUse">
<stop stop-color="#E2E2E2"/>
<stop offset="1" stop-color="white"/>
</linearGradient>
<clipPath id="clip0_1_86">
<rect width="1920" height="1920" fill="white"/>
</clipPath>
</defs>
</svg>
